<svg xmlns="http://www.w3.org/2000/svg" viewBox="0 0 57.64 74.69">
    <g id="Layer_2" data-name="Layer 2">
        <g id="Layer_1-2" data-name="Layer 1">
            <path class="cls-1" d="M9.74,15c9.65,0,9.67-15,0-15s-9.67,15,0,15Z"/>
            <path class="cls-1"
                  d="M2.78,26.19C1.53,38.37-3.35,54.84,3.84,65.78c8.26,12.54,25.68,10.54,35.91,2,10.74-9,22.57-28.16,16-42.31-3-6.41-9.65-9-16.43-8.74-7.56.29-13.62,5.38-16.64,12.19-3,6.65-2.31,15.2,3.2,20.34A19.51,19.51,0,0,0,50.22,51c6.36-4.3.36-14.7-6.06-10.36-4,2.7-11.49,2.51-11.23-3.91.18-4.56,3.88-8.41,8.41-7.93,12,1.27-3.08,23.44-6.77,27.41-3.39,3.65-7.78,6.87-13,6.67-5-.18-8.45-2.87-9.13-7.91-1.24-9.24,1.39-19.53,2.33-28.73.79-7.68-11.21-7.62-12,0Z"/>
        </g>
    </g>
</svg>
